<?xml version="1.0" encoding="utf-8"?>
<!-- Generator: Adobe Illustrator 19.0.1, SVG Export Plug-In . SVG Version: 6.00 Build 0)  -->
<svg version="1.1" xmlns="http://www.w3.org/2000/svg" xmlns:xlink="http://www.w3.org/1999/xlink" x="0px" y="0px"
	 viewBox="0 0 344.4 584.5" style="enable-background:new 0 0 344.4 584.5;" xml:space="preserve">
<style type="text/css">
	.st0{fill:#B2D235;}
	.st1{fill:#006695;}
	.st2{fill:#FFFFFF;}
</style>
<g id="Guides_For_Artboard_1_">
</g>
<g id="Guides_For_Artboard">
</g>
<g id="Layer_1">
	<path class="st2" d="M331.5,476.9v64.4h12.4v-69.4L331.5,476.9z M310.8,523.2c-0.5,1.8-1.1,3.3-1.9,4.6c-0.9,1.3-1.9,2.4-3.2,3.1
		c-1.3,0.8-2.7,1.1-4.4,1.1c-3.3,0-5.9-1.3-7.6-3.9c-1.8-2.6-2.7-6.2-2.7-10.9c0-4.2,0.8-7.6,2.6-10.4c1.7-2.7,4.2-4.1,7.4-4.1
		c3.5,0,6.1,1.4,7.9,4c1.7,2.7,2.7,6.2,2.7,10.6C311.5,519.6,311.2,521.5,310.8,523.2 M317.6,499.3c-2-2.1-4.4-3.8-7.1-4.9
		c-2.8-1.2-5.9-1.7-9.2-1.7c-3.3,0-6.4,0.6-9.1,1.7c-2.8,1.1-5.2,2.8-7.2,4.9c-2,2.1-3.6,4.7-4.7,7.8c-1.1,3.1-1.7,6.6-1.7,10.5
		c0,3.8,0.5,7.2,1.6,10.2c1.1,3.1,2.6,5.7,4.5,7.8c2,2.1,4.3,3.8,7.1,5c2.8,1.2,5.9,1.7,9.3,1.7c3.3,0,6.4-0.6,9.2-1.7
		c2.8-1.1,5.2-2.8,7.2-4.9c2-2.2,3.6-4.8,4.7-7.9c1.1-3.1,1.7-6.6,1.7-10.5c0-3.8-0.6-7.2-1.7-10.2
		C321.1,504.1,319.6,501.5,317.6,499.3 M259.8,523.2c-0.5,1.8-1.1,3.3-2,4.6c-0.8,1.3-1.9,2.4-3.2,3.1c-1.3,0.8-2.7,1.1-4.4,1.1
		c-3.3,0-5.9-1.3-7.7-3.9c-1.8-2.6-2.7-6.2-2.7-10.9c0-4.2,0.8-7.6,2.6-10.4c1.7-2.7,4.2-4.1,7.5-4.1c3.5,0,6.1,1.4,7.8,4
		c1.8,2.7,2.7,6.2,2.7,10.6C260.5,519.6,260.2,521.5,259.8,523.2 M266.6,499.3c-2-2.1-4.4-3.8-7.1-4.9c-2.8-1.2-5.8-1.7-9.2-1.7
		c-3.3,0-6.4,0.6-9.2,1.7c-2.8,1.1-5.2,2.8-7.2,4.9c-2,2.1-3.6,4.7-4.7,7.8c-1.1,3.1-1.7,6.6-1.7,10.5c0,3.8,0.5,7.2,1.6,10.2
		c1.1,3.1,2.6,5.7,4.5,7.8c1.9,2.1,4.3,3.8,7.1,5c2.8,1.2,5.9,1.7,9.3,1.7c3.3,0,6.4-0.6,9.2-1.7c2.8-1.1,5.2-2.8,7.2-4.9
		c2-2.2,3.6-4.8,4.7-7.9c1.1-3.1,1.7-6.6,1.7-10.5c0-3.8-0.5-7.2-1.7-10.2C270.1,504.1,268.6,501.5,266.6,499.3 M209,505.2
		c-1.7,1.5-4,2.3-6.9,2.4h-14v-18.8h13.2c3,0,5.5,0.7,7.4,2.3c1.9,1.5,2.9,3.9,2.9,7.1C211.5,501.4,210.7,503.7,209,505.2
		 M218.6,482.7c-1.9-1.7-4.3-2.9-7-3.8c-2.7-0.8-5.6-1.2-8.8-1.2h-27.5v63.6h12.8v-22.5h14c3.3,0,6.4-0.4,9.1-1.3
		c2.8-0.8,5.2-2.1,7.2-3.8c2-1.7,3.6-3.9,4.7-6.5c1.1-2.6,1.6-5.7,1.6-9.2c0-3.4-0.5-6.3-1.6-8.9
		C222.1,486.5,220.6,484.4,218.6,482.7 M156.9,494.4c-2.2,1.1-4.1,2.8-5.6,5.3h-0.2v-6h-12.4v47.7h12.4v-25.5c0-4,0.9-6.8,2.6-8.4
		c1.8-1.6,4.3-2.3,7.6-2.3c2,0,4.4,0.3,7.3,0.8c0.3-1.9,0.7-3.9,1.1-5.9c0.4-2,0.8-4,1.1-5.9c-2.3-0.9-4.6-1.4-6.9-1.4
		C161.4,492.7,159.1,493.2,156.9,494.4 M117.9,523.2c-0.5,1.8-1.1,3.3-2,4.6c-0.9,1.3-1.9,2.4-3.2,3.1c-1.3,0.8-2.7,1.1-4.4,1.1
		c-3.3,0-5.9-1.3-7.7-3.9c-1.7-2.6-2.6-6.2-2.6-10.9c0-4.2,0.8-7.6,2.6-10.4c1.7-2.7,4.2-4.1,7.5-4.1c3.5,0,6.1,1.4,7.9,4
		c1.8,2.7,2.6,6.2,2.6,10.6C118.6,519.6,118.4,521.5,117.9,523.2 M124.7,499.3c-2-2.1-4.4-3.8-7.1-4.9c-2.8-1.2-5.9-1.7-9.2-1.7
		c-3.3,0-6.4,0.6-9.2,1.7c-2.8,1.1-5.2,2.8-7.2,4.9c-2,2.1-3.6,4.7-4.6,7.8c-1.1,3.1-1.7,6.6-1.7,10.5c0,3.8,0.5,7.2,1.6,10.2
		c1,3.1,2.6,5.7,4.5,7.8c2,2.1,4.3,3.8,7.1,5c2.8,1.2,5.9,1.7,9.3,1.7c3.3,0,6.4-0.6,9.2-1.7c2.8-1.1,5.2-2.8,7.2-4.9
		c2-2.2,3.6-4.8,4.7-7.9c1.2-3.1,1.7-6.6,1.7-10.5c0-3.8-0.5-7.2-1.7-10.2C128.3,504.1,126.7,501.5,124.7,499.3 M78.3,531.1
		c-1,0.1-1.8,0.1-2.6,0.1c-2.1,0-3.5-0.4-4.3-1.3c-0.8-0.9-1.2-2.5-1.2-4.7v-22.1h10v-9.5h-10V478l-11.9,4.7v11H51v9.5h7.1v25.7
		c0,4.8,1.1,8.3,3.5,10.4c2.3,2.1,5.5,3.1,9.5,3.1c1.8,0,3.8-0.2,5.8-0.6c2-0.4,3.9-0.9,5.6-1.4l-1-9.6
		C80.3,530.9,79.2,531,78.3,531.1 M42,508.5c-2.3-1.5-4.7-2.7-7.4-3.5c-2.7-0.9-5.2-1.7-7.5-2.3c-1.5-0.5-2.9-0.9-4.3-1.4
		c-1.4-0.4-2.6-1-3.7-1.6c-1.1-0.6-1.9-1.3-2.6-2.1c-0.7-0.8-1-1.8-1-3c0-1.8,0.7-3.4,2.2-4.7c1.5-1.3,3.8-2,7-2
		c2.7,0,5.5,0.5,8.1,1.4c2.7,1,5.3,2.4,7.8,4.5l7.4-9.4c-3-2.5-6.4-4.5-10.2-5.9c-3.8-1.4-7.9-2-12.4-2c-3.1,0-6.1,0.4-8.9,1.3
		c-2.8,0.8-5.2,2.1-7.3,3.7c-2.1,1.6-3.8,3.5-5,5.8c-1.3,2.3-1.9,4.9-1.9,7.9c0,2.9,0.5,5.4,1.4,7.4c1,2,2.3,3.7,4.1,5.2
		c1.8,1.5,4,2.7,6.7,3.7c2.6,1.1,5.6,2.1,9,3c4.7,1.3,8.1,2.5,10,3.7c1.9,1.2,2.9,2.9,2.9,5c0,4.9-3.7,7.4-11.1,7.4
		c-2.9,0-5.8-0.6-8.8-1.8c-3-1.2-5.8-2.9-8.3-5.2l-7.8,9.2c3,2.9,6.6,5.1,10.9,6.7c4.3,1.6,8.9,2.4,13.7,2.4c3.8,0,7.2-0.4,10.2-1.3
		c3.1-0.9,5.7-2.1,7.9-3.7c2.2-1.6,3.9-3.6,5-6.1c1.2-2.4,1.8-5.2,1.8-8.3c0-3.6-0.7-6.5-2.3-8.8C46.2,511.9,44.3,510,42,508.5"/>
	<g>
		<polygon class="st0" points="11.4,167.5 99.5,320.2 142.2,246.2 96.8,167.5 		"/>
		<polygon class="st0" points="108.1,0 151.1,74 242,74 284.4,0 		"/>
		<polygon class="st0" points="96.8,157.6 142.2,79 99.5,4.9 11.4,157.6 		"/>
		<polygon class="st0" points="333,241.2 244.8,88.6 202.1,162.6 247.5,241.2 		"/>
		<polygon class="st0" points="236.2,408.7 193.2,334.7 102.4,334.7 60,408.7 		"/>
		<polygon class="st0" points="247.5,251.1 202.1,329.8 244.8,403.8 333,251.1 		"/>
	</g>
	<path class="st2" d="M327.4,584.2h16.8V581h-13.2v-8.3h9v-3.2h-9v-6.8h12.7v-3.2h-16.3V584.2z M311.1,560c-1.3,0.6-2.4,1.4-3.3,2.5
		c-0.9,1.1-1.6,2.4-2.1,4c-0.5,1.6-0.8,3.3-0.8,5.3c0,1.9,0.2,3.7,0.7,5.3c0.5,1.6,1.2,2.9,2.1,4c0.9,1.1,2,2,3.3,2.6
		c1.3,0.6,2.8,0.9,4.5,0.9c1.5,0,2.8-0.2,4-0.7c1.2-0.5,2.2-1.1,3-2c0.8-0.9,1.5-2,1.9-3.2c0.4-1.3,0.7-2.7,0.7-4.3v-2.5h-7.6v3h4.1
		c0,0.7-0.1,1.4-0.2,2.2c-0.2,0.8-0.5,1.5-0.9,2.2c-0.4,0.7-1,1.2-1.8,1.7c-0.8,0.4-1.8,0.7-3,0.7c-1.2,0-2.2-0.2-3.1-0.7
		c-0.9-0.5-1.6-1.1-2.2-1.9c-0.6-0.8-1-1.8-1.3-3c-0.3-1.2-0.4-2.5-0.4-3.9c0-1.4,0.1-2.6,0.4-3.8c0.3-1.1,0.7-2.1,1.3-3
		c0.6-0.8,1.3-1.5,2.1-2c0.8-0.5,1.8-0.7,3-0.7c2.2,0,4,0.9,5.6,2.7l2.5-2.4c-1-1.2-2.1-2.1-3.5-2.7c-1.3-0.6-2.8-0.9-4.6-0.9
		C313.8,559.1,312.4,559.4,311.1,560 M289.1,575.5l4.6-12.3h0.1c0.7,2.3,1.5,4.4,2.3,6.3c0.8,1.9,1.6,4,2.3,6H289.1z M299.5,578.5
		c0.4,1,0.7,1.9,1.1,2.8c0.4,0.9,0.7,1.9,1.1,2.8h3.8c-1.6-4.1-3.3-8.3-4.9-12.4c-1.6-4.1-3.2-8.2-4.8-12.4h-3.9l-9.6,24.7h3.7
		c0.4-0.9,0.7-1.9,1.1-2.8c0.4-0.9,0.7-1.9,1.1-2.8H299.5z M273,562.6c1.4,0,2.6,0.4,3.4,1.1c0.9,0.8,1.3,1.9,1.3,3.3
		c0,1.4-0.4,2.6-1.2,3.4c-0.8,0.8-2,1.2-3.5,1.2h-6.8v-9H273z M280.6,563.6c-0.4-0.9-1-1.7-1.7-2.3c-0.7-0.6-1.6-1.1-2.6-1.4
		c-1-0.3-2.1-0.5-3.2-0.5h-10.4v24.7h3.5v-9.6h6.5l4.4,9.6h3.9l-4.8-10c1.6-0.5,2.8-1.3,3.7-2.5c0.9-1.2,1.3-2.8,1.3-4.6
		C281.2,565.7,281,564.6,280.6,563.6 M252.6,563c0.9,0.5,1.6,1.1,2.2,2c0.6,0.8,1,1.9,1.3,3c0.3,1.2,0.4,2.4,0.4,3.8
		c0,1.3-0.1,2.5-0.4,3.7c-0.3,1.2-0.7,2.2-1.3,3c-0.6,0.9-1.3,1.6-2.2,2.1c-0.9,0.5-1.9,0.8-3,0.8c-1.1,0-2.1-0.3-3-0.8
		c-0.9-0.5-1.6-1.2-2.2-2c-0.6-0.9-1-1.9-1.3-3c-0.3-1.2-0.4-2.4-0.4-3.7c0-1.4,0.1-2.6,0.4-3.8c0.3-1.2,0.7-2.2,1.3-3
		c0.6-0.8,1.3-1.5,2.1-2c0.9-0.5,1.9-0.7,3-0.7C250.7,562.3,251.7,562.5,252.6,563 M253.9,583.6c1.3-0.6,2.4-1.5,3.3-2.6
		c0.9-1.1,1.6-2.5,2.1-4c0.5-1.6,0.7-3.3,0.7-5.2c0-1.9-0.2-3.6-0.7-5.2c-0.5-1.6-1.2-2.9-2.1-4c-0.9-1.1-2-2-3.3-2.6
		c-1.3-0.6-2.7-0.9-4.3-0.9c-1.7,0-3.2,0.3-4.5,1c-1.3,0.6-2.4,1.5-3.3,2.7c-0.9,1.1-1.6,2.5-2,4c-0.5,1.6-0.7,3.2-0.7,5.1
		c0,1.8,0.2,3.5,0.7,5.1c0.5,1.6,1.1,2.9,2,4c0.9,1.1,2,2,3.3,2.6c1.3,0.6,2.8,0.9,4.5,0.9C251.2,584.5,252.6,584.2,253.9,583.6
		 M231.5,562.6h7.5v-3.2h-18.4v3.2h7.4v21.5h3.5V562.6z M208,559.5c-1,0.3-1.9,0.8-2.7,1.4c-0.8,0.6-1.4,1.3-1.8,2.2
		c-0.4,0.8-0.6,1.8-0.6,2.8c0,1.1,0.2,2,0.5,2.7c0.4,0.7,0.9,1.4,1.5,1.9c0.7,0.5,1.5,1,2.5,1.4c1,0.4,2.1,0.8,3.3,1.1
		c0.9,0.3,1.7,0.5,2.4,0.8c0.7,0.3,1.3,0.5,1.8,0.9c0.5,0.3,0.9,0.7,1.2,1.2c0.3,0.4,0.4,1,0.4,1.6c0,1.4-0.5,2.3-1.5,2.9
		c-1,0.6-2.3,0.9-4,0.9c-1.2,0-2.4-0.2-3.5-0.7c-1.1-0.5-2.2-1.1-3.1-2l-2.2,2.5c1.1,1,2.3,1.8,3.9,2.4c1.5,0.6,3.1,0.9,4.9,0.9
		c3,0,5.3-0.6,6.9-1.9c1.6-1.2,2.4-3,2.4-5.2c0-1.4-0.3-2.5-0.9-3.4c-0.6-0.9-1.3-1.6-2.3-2.2c-0.9-0.6-1.9-1-3-1.4
		c-1.1-0.3-2-0.7-3-1c-0.6-0.2-1.2-0.4-1.7-0.6c-0.6-0.2-1.1-0.5-1.5-0.8c-0.4-0.3-0.8-0.6-1.1-1c-0.3-0.4-0.4-0.9-0.4-1.4
		c0-1,0.4-1.8,1.1-2.5c0.8-0.7,1.9-1,3.4-1c2.4,0,4.4,0.7,6.3,2.2c0,0,0.1-0.2,0.4-0.4c0.2-0.3,0.4-0.5,0.7-0.8
		c0.2-0.3,0.5-0.6,0.7-0.8c0.2-0.3,0.3-0.4,0.4-0.5c-1.1-0.9-2.3-1.6-3.6-2.1c-1.3-0.5-2.8-0.7-4.4-0.7
		C210.1,559.1,209,559.2,208,559.5 M182.4,562.6c1.5,0,2.8,0.2,3.9,0.7c1.1,0.4,2,1.1,2.8,1.9c0.7,0.8,1.3,1.8,1.7,2.9
		c0.4,1.1,0.6,2.4,0.6,3.8c0,2.8-0.7,5-2.2,6.7c-1.5,1.7-3.7,2.5-6.7,2.5h-3v-18.3H182.4z M182.4,584.2c1.7,0,3.3-0.2,4.8-0.7
		c1.5-0.5,2.8-1.2,4-2.2c1.1-1,2-2.3,2.7-3.8c0.7-1.6,1-3.5,1-5.7c0-2.2-0.3-4.1-1-5.7c-0.7-1.6-1.5-2.8-2.7-3.8
		c-1.1-1-2.4-1.7-3.9-2.1c-1.5-0.4-3.1-0.7-4.8-0.7h-6.6v24.7H182.4z M157.3,584.2h16.8V581h-13.2v-8.3h9v-3.2h-9v-6.8h12.7v-3.2
		h-16.3V584.2z M148.4,562.6h7.5v-3.2h-18.4v3.2h7.4v21.5h3.5V562.6z M133.4,581.9c1.7-1.8,2.6-4.4,2.6-8v-14.4h-3.6v14.5
		c0,2.3-0.5,4.1-1.5,5.4c-1,1.3-2.5,2-4.6,2c-2,0-3.5-0.7-4.5-2c-1-1.4-1.5-3.2-1.5-5.6v-14.3h-3.6v14.4c0,3.6,0.8,6.2,2.5,8
		c1.7,1.8,4,2.7,7,2.7C129.3,584.5,131.7,583.7,133.4,581.9 M105.9,572.5c1.4,0,2.5,0.4,3.4,1.1c0.9,0.7,1.4,1.8,1.4,3.2
		c0,1.3-0.4,2.4-1.2,3.1c-0.8,0.7-2,1.1-3.6,1.1h-6.8v-8.5H105.9z M106,562.6c1.2,0,2.2,0.3,2.8,0.9c0.6,0.6,0.9,1.4,0.9,2.5
		c0,1-0.3,1.9-1,2.5c-0.7,0.7-1.7,1-2.9,1h-6.7v-6.9H106z M109.8,570.7c1-0.4,1.9-1,2.5-2c0.6-0.9,1-2,1-3.1c0-2-0.7-3.5-2-4.6
		c-1.3-1.1-3-1.6-5.2-1.6H95.7v24.7H106c2.6,0,4.7-0.6,6.1-1.9c1.5-1.3,2.2-3.1,2.2-5.5c0-1.5-0.4-2.8-1.3-3.9
		c-0.9-1.1-1.9-1.7-3.2-2V570.7z M88.2,584.2h3.6v-24.7h-3.6V584.2z M77,562.6c1.4,0,2.6,0.4,3.4,1.1c0.9,0.8,1.3,1.9,1.3,3.3
		c0,1.4-0.4,2.6-1.2,3.4c-0.8,0.8-2,1.2-3.5,1.2h-6.8v-9H77z M84.7,563.6c-0.4-0.9-1-1.7-1.7-2.3c-0.7-0.6-1.6-1.1-2.6-1.4
		c-1-0.3-2.1-0.5-3.2-0.5H66.8v24.7h3.5v-9.6h6.5l4.4,9.6H85l-4.8-10c1.6-0.5,2.8-1.3,3.7-2.5c0.9-1.2,1.3-2.8,1.3-4.6
		C85.3,565.7,85.1,564.6,84.7,563.6 M57.8,562.6h7.5v-3.2H46.9v3.2h7.4v21.5h3.5V562.6z M34.3,559.5c-1,0.3-1.9,0.8-2.7,1.4
		c-0.8,0.6-1.4,1.3-1.8,2.2c-0.4,0.8-0.6,1.8-0.6,2.8c0,1.1,0.2,2,0.5,2.7c0.4,0.7,0.9,1.4,1.5,1.9c0.7,0.5,1.5,1,2.5,1.4
		c1,0.4,2.1,0.8,3.3,1.1c0.9,0.3,1.7,0.5,2.4,0.8c0.7,0.3,1.3,0.5,1.8,0.9c0.5,0.3,0.9,0.7,1.2,1.2c0.3,0.4,0.4,1,0.4,1.6
		c0,1.4-0.5,2.3-1.5,2.9c-1,0.6-2.3,0.9-4,0.9c-1.2,0-2.4-0.2-3.5-0.7c-1.1-0.5-2.2-1.1-3.1-2l-2.2,2.5c1.1,1,2.3,1.8,3.9,2.4
		c1.5,0.6,3.1,0.9,4.9,0.9c3,0,5.3-0.6,6.9-1.9c1.6-1.2,2.4-3,2.4-5.2c0-1.4-0.3-2.5-0.9-3.4c-0.6-0.9-1.3-1.6-2.3-2.2
		c-0.9-0.6-1.9-1-3-1.4c-1.1-0.3-2-0.7-3-1c-0.6-0.2-1.2-0.4-1.7-0.6c-0.6-0.2-1.1-0.5-1.5-0.8c-0.4-0.3-0.8-0.6-1.1-1
		c-0.3-0.4-0.4-0.9-0.4-1.4c0-1,0.4-1.8,1.1-2.5c0.8-0.7,1.9-1,3.4-1c2.4,0,4.4,0.7,6.3,2.2c0,0,0.1-0.2,0.4-0.4
		c0.2-0.3,0.4-0.5,0.7-0.8c0.2-0.3,0.5-0.6,0.7-0.8c0.2-0.3,0.3-0.4,0.4-0.5c-1.1-0.9-2.3-1.6-3.6-2.1c-1.3-0.5-2.8-0.7-4.4-0.7
		C36.4,559.1,35.3,559.2,34.3,559.5 M22.3,584.2h3.6v-24.7h-3.6V584.2z M6.8,562.6c1.5,0,2.8,0.2,3.9,0.7c1.1,0.4,2,1.1,2.8,1.9
		c0.7,0.8,1.3,1.8,1.7,2.9c0.4,1.1,0.6,2.4,0.6,3.8c0,2.8-0.7,5-2.2,6.7c-1.5,1.7-3.7,2.5-6.7,2.5h-3v-18.3H6.8z M6.7,584.2
		c1.7,0,3.3-0.2,4.8-0.7c1.5-0.5,2.8-1.2,4-2.2c1.1-1,2-2.3,2.7-3.8c0.7-1.6,1-3.5,1-5.7c0-2.2-0.3-4.1-1-5.7
		c-0.7-1.6-1.5-2.8-2.7-3.8c-1.1-1-2.4-1.7-3.9-2.1c-1.5-0.4-3.1-0.7-4.8-0.7H0.2v24.7H6.7z"/>
</g>
</svg>
